<svg>
  <symbol id="icon--magnifier" fill="currentColor" viewBox="0 0 485 485" xmlns="http://www.w3.org/2000/svg">
    <path d="M471.882,407.567L360.567,296.243c-16.586,25.795-38.536,47.734-64.331,64.321l111.324,111.324 c17.772,17.768,46.587,17.768,64.321,0C489.654,454.149,489.654,425.334,471.882,407.567z M363.909,181.955C363.909,81.473,282.44,0,181.956,0C81.474,0,0.001,81.473,0.001,181.955s81.473,181.951,181.955,181.951 C282.44,363.906,363.909,282.437,363.909,181.955z M181.956,318.416c-75.252,0-136.465-61.208-136.465-136.46 c0-75.252,61.213-136.465,136.465-136.465c75.25,0,136.468,61.213,136.468,136.465 C318.424,257.208,257.206,318.416,181.956,318.416z M75.817,181.955h30.322c0-41.803,34.014-75.814,75.816-75.814V75.816C123.438,75.816,75.817,123.437,75.817,181.955z"/>
  </symbol>
  <symbol id="icon--arrow-right" fill="currentColor" viewBox="0 0 512 512" xmlns="http://www.w3.org/2000/svg">
    <g>
      <path d="M494.469,213.589L319.176,37.864c-7.802-7.821-20.465-7.835-28.286-0.035c-7.82,7.801-7.836,20.465-0.035,28.285 l175.311,175.744c7.797,7.798,7.797,20.487-0.018,28.302L290.855,445.886c-7.8,7.82-7.785,20.484,0.035,28.285 c3.904,3.894,9.016,5.84,14.126,5.84c5.126,0,10.253-1.959,14.161-5.876l175.275-175.707 C517.846,275.033,517.846,236.966,494.469,213.589z"/>
      <path d="M383.019,235.999H20.001C8.954,235.999,0,244.954,0,256s8.954,20.001,20.001,20.001h363.018 c11.047,0,20.001-8.954,20.001-20.001S394.066,235.999,383.019,235.999z"/>
    </g>
  </symbol>
  <symbol id="logo--facebook" fill="currentColor" viewBox="0 0 512 512" xmlns="http://www.w3.org/2000/svg">
    <path d="M288,176v-64c0-17.664,14.336-32,32-32h32V0h-64c-53.024,0-96,42.976-96,96v80h-64v80h64v256h96V256h64l32-80H288z"/>
  </symbol>
  <symbol id="logo--twitter" fill="currentColor" viewBox="0 0 512 512" xmlns="http://www.w3.org/2000/svg">
    <path d="M512,97.248c-19.04,8.352-39.328,13.888-60.48,16.576c21.76-12.992,38.368-33.408,46.176-58.016 c-20.288,12.096-42.688,20.64-66.56,25.408C411.872,60.704,384.416,48,354.464,48c-58.112,0-104.896,47.168-104.896,104.992 c0,8.32,0.704,16.32,2.432,23.936c-87.264-4.256-164.48-46.08-216.352-109.792c-9.056,15.712-14.368,33.696-14.368,53.056 c0,36.352,18.72,68.576,46.624,87.232c-16.864-0.32-33.408-5.216-47.424-12.928c0,0.32,0,0.736,0,1.152 c0,51.008,36.384,93.376,84.096,103.136c-8.544,2.336-17.856,3.456-27.52,3.456c-6.72,0-13.504-0.384-19.872-1.792 c13.6,41.568,52.192,72.128,98.08,73.12c-35.712,27.936-81.056,44.768-130.144,44.768c-8.608,0-16.864-0.384-25.12-1.44 C46.496,446.88,101.6,464,161.024,464c193.152,0,298.752-160,298.752-298.688c0-4.64-0.16-9.12-0.384-13.568 C480.224,136.96,497.728,118.496,512,97.248z"/>
  </symbol>
  <symbol id="logo--linkedin" fill="currentColor" viewBox="0 0 512 512" xmlns="http://www.w3.org/2000/svg">
    <g>
      <rect y="160" width="114.496" height="352"/>
      <path d="M426.368,164.128c-1.216-0.384-2.368-0.8-3.648-1.152c-1.536-0.352-3.072-0.64-4.64-0.896 c-6.08-1.216-12.736-2.08-20.544-2.08c-66.752,0-109.088,48.544-123.04,67.296V160H160v352h114.496V320 c0,0,86.528-120.512,123.04-32c0,79.008,0,224,0,224H512V274.464C512,221.28,475.552,176.96,426.368,164.128z"/>
      <circle cx="56" cy="56" r="56"/>
    </g>
  </symbol>
  <symbol id="logo--dribbble" fill="currentColor" viewBox="0 0 512 512" xmlns="http://www.w3.org/2000/svg">
    <g>
      <path d="M256,0C114.848,0,0,114.848,0,256s114.848,256,256,256s256-114.848,256-256S397.152,0,256,0z M256,480 C132.48,480,32,379.488,32,256C32,132.48,132.48,32,256,32c123.488,0,224,100.48,224,224C480,379.488,379.488,480,256,480z"/>
      <path d="M256,64c-13.44,0-26.56,1.408-39.232,4.032c23.296,33.024,44.448,67.392,63.072,103.008 c35.232-16.416,68.384-37.6,98.656-62.88C345.248,80.576,302.56,64,256,64z"/>
      <path d="M401.312,130.752c-32.928,27.744-69.152,50.752-107.616,68.736c8.416,17.536,16.224,35.296,23.456,53.344 c42.496-8.736,86.72-9.536,130.56-2.272C446.432,204.8,429.216,163.072,401.312,130.752z"/>
      <path d="M184.64,77.856c-57.632,23.104-101.344,73.28-115.552,134.88c62.144,2.656,123.648-7.712,180.896-29.568 C230.752,146.656,208.96,111.456,184.64,77.856z"/>
      <path d="M264.32,212.128c-55.424,21.6-114.624,33.376-174.816,33.376c-8.288,0-16.608-0.512-24.928-0.96 C64.352,248.352,64,252.128,64,256c0,47.136,17.056,90.272,45.248,123.68c46.112-57.248,108.096-98.272,176.704-118.88 C279.264,244.352,272.032,228.16,264.32,212.128z"/>
      <path d="M328.896,283.136c15.264,42.56,27.232,86.304,36,130.912c43.264-29.856,73.472-76.992,81.056-131.456 C406.72,275.648,367.072,275.968,328.896,283.136z"/>
      <path d="M297.472,290.56c-64.512,18.848-122.784,57.568-165.504,111.872C165.44,430.816,208.672,448,256,448 c28.416,0,55.328-6.336,79.584-17.44C326.784,382.752,313.984,335.968,297.472,290.56z"/>
    </g>
  </symbol>
  <symbol id="logo--pinterest" fill="currentColor" viewBox="0 0 512 512" xmlns="http://www.w3.org/2000/svg">
    <path d="M262.948,0C122.628,0,48.004,89.92,48.004,187.968c0,45.472,25.408,102.176,66.08,120.16 c6.176,2.784,9.536,1.6,10.912-4.128c1.216-4.352,6.56-25.312,9.152-35.2c0.8-3.168,0.384-5.92-2.176-8.896 c-13.504-15.616-24.224-44.064-24.224-70.752c0-68.384,54.368-134.784,146.88-134.784c80,0,135.968,51.968,135.968,126.304 c0,84-44.448,142.112-102.208,142.112c-31.968,0-55.776-25.088-48.224-56.128c9.12-36.96,27.008-76.704,27.008-103.36 c0-23.904-13.504-43.68-41.088-43.68c-32.544,0-58.944,32.224-58.944,75.488c0,27.488,9.728,46.048,9.728,46.048 S144.676,371.2,138.692,395.488c-10.112,41.12,1.376,107.712,2.368,113.44c0.608,3.168,4.16,4.16,6.144,1.568 c3.168-4.16,42.08-59.68,52.992-99.808c3.968-14.624,20.256-73.92,20.256-73.92c10.72,19.36,41.664,35.584,74.624,35.584 c98.048,0,168.896-86.176,168.896-193.12C463.62,76.704,375.876,0,262.948,0z"/>
  </symbol>
  <symbol id="logo--instagram" fill="currentColor" viewBox="0 0 512 512" xmlns="http://www.w3.org/2000/svg">
    <g>
      <path d="M352,0H160C71.648,0,0,71.648,0,160v192c0,88.352,71.648,160,160,160h192c88.352,0,160-71.648,160-160V160 C512,71.648,440.352,0,352,0z M464,352c0,61.76-50.24,112-112,112H160c-61.76,0-112-50.24-112-112V160C48,98.24,98.24,48,160,48 h192c61.76,0,112,50.24,112,112V352z"/>
      <path d="M256,128c-70.688,0-128,57.312-128,128s57.312,128,128,128s128-57.312,128-128S326.688,128,256,128z M256,336 c-44.096,0-80-35.904-80-80c0-44.128,35.904-80,80-80s80,35.872,80,80C336,300.096,300.096,336,256,336z"/>
      <circle cx="393.6" cy="118.4" r="17.056"/>
    </g>
  </symbol>
</svg>
