<svg xmlns="http://www.w3.org/2000/svg" width="1400" height="74"><defs><clipPath id="a"><path fill="#fff" d="M699 0c20.434 0 37 16.565 37 37 0 20.434-16.566 37-37 37-20.435 0-37-16.566-37-37 0-20.435 16.565-37 37-37z"/></clipPath><clipPath id="b"><path fill="#fff" d="M703 0c12.703 0 23 10.297 23 23 0 12.702-10.297 23-23 23s-23-10.298-23-23c0-12.703 10.297-23 23-23z"/></clipPath></defs><path fill="#ededed" d="M0 37h1400v4H0z"/><path fill="#fff" d="M699 0c20.434 0 37 16.565 37 37 0 20.434-16.566 37-37 37-20.435 0-37-16.566-37-37 0-20.435 16.565-37 37-37z"/><path fill="none" stroke="#ededed" stroke-miterlimit="50" stroke-width="8" d="M699 0c20.434 0 37 16.565 37 37 0 20.434-16.566 37-37 37-20.435 0-37-16.566-37-37 0-20.435 16.565-37 37-37z" clip-path="url(&quot;#a&quot;)"/><path fill="#ededed" d="M661 37h24v4h-24z"/><path fill="#ededed" d="M699.128 49.497l-19.297-10.66 18.881-11.381zm11.788-22.79l3.37-2.157 24.798 38.743-3.37 2.157z"/><path fill="none" stroke="#ededed" stroke-miterlimit="50" stroke-width="8" d="M703 0c12.703 0 23 10.297 23 23 0 12.702-10.297 23-23 23s-23-10.298-23-23c0-12.703 10.297-23 23-23z" clip-path="url(&quot;#b&quot;)"/><path fill="#ededed" d="M679.298 66.589l52.59-26.744 1.814 3.566-52.59 26.743z"/></svg>