<svg xmlns="http://www.w3.org/2000/svg" xmlns:xlink="http://www.w3.org/1999/xlink"><symbol id="icon_clock" viewBox="0 0 512 512" fill="currentColor"><path d="M256 0C114.497 0 0 114.507 0 256c0 141.503 114.508 256 256 256 141.503 0 256-114.507 256-256C512 114.497 397.492 0 256 0zm0 472c-119.393 0-216-96.615-216-216 0-119.393 96.616-216 216-216 119.393 0 216 96.615 216 216 0 119.393-96.616 216-216 216z"/><path d="M366.29 298.85L276 244.676V96c0-11.046-8.954-20-20-20s-20 8.954-20 20v160a20.001 20.001 0 009.71 17.15l100 60c9.471 5.683 21.758 2.611 27.439-6.86 5.684-9.472 2.613-21.757-6.859-27.44z"/></symbol><symbol id="icon_email" viewBox="0 0 512 512" fill="currentColor"><path d="M467 61H45C20.218 61 0 81.196 0 106v300c0 24.72 20.128 45 45 45h422c24.72 0 45-20.128 45-45V106c0-24.72-20.128-45-45-45zm-6.214 30L256.954 294.833 51.359 91h409.427zM30 399.788V112.069l144.479 143.24L30 399.788zM51.213 421l144.57-144.57 50.657 50.222c5.864 5.814 15.327 5.795 21.167-.046L317 277.213 460.787 421H51.213zM482 399.787L338.213 256 482 112.212v287.575z"/></symbol><symbol id="icon_facebook" viewBox="0 0 512 512" fill="currentColor"><path d="M288 176v-64c0-17.664 14.336-32 32-32h32V0h-64c-53.024 0-96 42.976-96 96v80h-64v80h64v256h96V256h64l32-80h-96z"/></symbol><symbol id="icon_instagram" viewBox="0 0 512 512" fill="currentColor"><path d="M352 0H160C71.648 0 0 71.648 0 160v192c0 88.352 71.648 160 160 160h192c88.352 0 160-71.648 160-160V160C512 71.648 440.352 0 352 0zm112 352c0 61.76-50.24 112-112 112H160c-61.76 0-112-50.24-112-112V160C48 98.24 98.24 48 160 48h192c61.76 0 112 50.24 112 112v192z"/><path d="M256 128c-70.688 0-128 57.312-128 128s57.312 128 128 128 128-57.312 128-128-57.312-128-128-128zm0 208c-44.096 0-80-35.904-80-80 0-44.128 35.904-80 80-80s80 35.872 80 80c0 44.096-35.904 80-80 80z"/><circle cx="394" cy="118" r="17"/></symbol><symbol id="icon_marker" viewBox="0 0 512 512" fill="currentColor"><path d="M256 0C153.755 0 70.573 83.182 70.573 185.426c0 126.888 165.939 313.167 173.004 321.035 6.636 7.391 18.222 7.378 24.846 0 7.065-7.868 173.004-194.147 173.004-321.035C441.425 83.182 358.244 0 256 0zm0 469.729c-55.847-66.338-152.035-197.217-152.035-284.301 0-83.834 68.202-152.036 152.035-152.036s152.035 68.202 152.035 152.035C408.034 272.515 311.861 403.37 256 469.729z"/><path d="M256 92.134c-51.442 0-93.292 41.851-93.292 93.293S204.559 278.72 256 278.72s93.291-41.851 93.291-93.293S307.441 92.134 256 92.134zm0 153.194c-33.03 0-59.9-26.871-59.9-59.901s26.871-59.901 59.9-59.901 59.9 26.871 59.9 59.901-26.871 59.901-59.9 59.901z"/></symbol><symbol id="icon_phone" viewBox="0 0 512 512" fill="currentColor"><path d="M498.827 377.633l-63.649-63.649c-17.548-17.547-46.102-17.547-63.649 0l-28.931 28.931c-13.294 13.294-34.926 13.29-48.215.005l-125.4-125.507c-13.325-13.325-13.327-34.892 0-48.219l28.931-28.931c17.471-17.47 17.715-45.935-.017-63.665l-63.632-63.432C116.717-4.381 88.164-4.381 70.663 13.12L47.471 36.111c-63.28 63.279-63.28 166.242-.003 229.519L246.16 464.426c63.428 63.429 166.088 63.434 229.521 0l23.146-23.145c17.548-17.548 17.548-46.1 0-63.648zM91.833 34.382c5.849-5.849 15.365-5.85 21.233.016l63.632 63.432c5.863 5.863 5.863 15.352 0 21.216l-10.609 10.608-84.81-84.81 10.554-10.462zM267.38 443.213L68.687 244.415c-48.958-48.958-51.649-125.833-8.276-178.006l84.564 84.564c-22.22 25.189-21.294 63.572 2.787 87.653l125.396 125.501.004.004c24.055 24.056 62.436 25.042 87.656 2.792l84.566 84.566c-52.007 43.298-128.709 41.019-178.004-8.276zm210.232-23.148l-10.609 10.609-84.865-84.866 10.607-10.608c5.85-5.849 15.367-5.85 21.217 0l63.649 63.649c5.85 5.85 5.85 15.368.001 21.216z"/></symbol><symbol id="icon_twitter" viewBox="0 0 512 512" fill="currentColor"><path d="M512 97.248c-19.04 8.352-39.328 13.888-60.48 16.576 21.76-12.992 38.368-33.408 46.176-58.016-20.288 12.096-42.688 20.64-66.56 25.408C411.872 60.704 384.416 48 354.464 48c-58.112 0-104.896 47.168-104.896 104.992 0 8.32.704 16.32 2.432 23.936-87.264-4.256-164.48-46.08-216.352-109.792-9.056 15.712-14.368 33.696-14.368 53.056 0 36.352 18.72 68.576 46.624 87.232-16.864-.32-33.408-5.216-47.424-12.928v1.152c0 51.008 36.384 93.376 84.096 103.136-8.544 2.336-17.856 3.456-27.52 3.456-6.72 0-13.504-.384-19.872-1.792 13.6 41.568 52.192 72.128 98.08 73.12-35.712 27.936-81.056 44.768-130.144 44.768-8.608 0-16.864-.384-25.12-1.44C46.496 446.88 101.6 464 161.024 464c193.152 0 298.752-160 298.752-298.688 0-4.64-.16-9.12-.384-13.568 20.832-14.784 38.336-33.248 52.608-54.496z"/></symbol></svg>